<?xml version="1.0" encoding="UTF-8"?>
<svg fill="none" viewBox="0 0 1440 900" xmlns="http://www.w3.org/2000/svg">
<g clip-path="url(#u)">
<rect width="1440" height="900" fill="#000"/>
<mask id="d" x="166" y="-295" width="1480" height="1417" style="mask-type:alpha" maskUnits="userSpaceOnUse">
<rect transform="rotate(-52.373 166 386.12)" x="166" y="386.12" width="860" height="1205" fill="url(#b)"/>
</mask>
<g mask="url(#d)">
<path d="m1086 150.86c204.26 157.45 254.23 435.12 111.61 620.13-14.95 19.404-31.49 37.087-49.26 52.933 91.82-180.86 32.61-418.04-150.26-559.02-182.87-140.97-427.24-137.8-578.85-3.031 10.802-21.219 23.694-41.711 38.652-61.115 142.62-185.01 423.86-207.36 628.11-49.902z" fill="#7326F1"/>
<g filter="url(#t)">
<path d="m1076.2 163.53c204.26 157.45 264 422.45 121.38 607.46-14.95 19.404-31.49 37.087-49.26 52.933 91.82-180.86 42.38-430.72-140.5-571.69-182.87-140.97-437-125.13-588.62 9.641 10.802-21.219 23.694-41.711 38.652-61.115 142.62-185.01 414.09-194.68 618.34-37.23z" fill="#7326F1"/>
</g>
<g filter="url(#m)">
<path d="m1071.3 169.87c204.25 157.45 265.45 433.67 122.83 618.68-14.96 19.404-31.49 37.087-49.26 52.933 91.82-180.86 50.69-454.61-132.18-595.58-182.88-140.97-453.92-101.55-605.54 33.219 10.802-21.219 23.694-41.71 38.652-61.114 142.62-185.01 421.23-205.59 625.49-48.137z" fill="#7326F1"/>
</g>
<g filter="url(#l)">
<path d="m1071.3 169.87c204.25 157.45 265.45 433.67 122.83 618.68-14.96 19.404-31.49 37.087-49.26 52.933 91.82-180.86 50.69-454.61-132.18-595.58-182.88-140.97-453.92-101.55-605.54 33.219 10.802-21.219 23.694-41.71 38.652-61.114 142.62-185.01 421.23-205.59 625.49-48.137z" fill="#7326F1"/>
</g>
<g filter="url(#k)">
<path d="m1071.3 169.87c204.25 157.45 265.45 433.67 122.83 618.68-14.96 19.404-31.49 37.087-49.26 52.933 91.82-180.86 50.69-454.61-132.18-595.58-182.88-140.97-453.92-101.55-605.54 33.219 10.802-21.219 23.694-41.71 38.652-61.114 142.62-185.01 421.23-205.59 625.49-48.137z" fill="#7326F1"/>
</g>
<g filter="url(#j)">
<path d="m1057.5 214.79c204.26 157.45 279.25 388.74 136.63 573.76-14.96 19.404-31.49 37.087-49.26 52.933 91.82-180.86 71.73-471.22-116.31-616.17-235.6-181.62-469.79-80.957-621.4 53.811 10.802-21.219 23.694-41.71 38.652-61.114 142.62-185.01 407.44-160.67 611.69-3.215z" fill="#7326F1"/>
</g>
<g filter="url(#i)">
<path d="m1057.5 214.79c204.26 157.45 325.56 388.46 182.94 573.47-14.96 19.404-109.7 48.774-127.47 64.621 91.82-180.86 103.63-482.62-84.41-627.57-235.6-181.62-463.7-46.593-615.32 88.175 18.453 14.225-32.117-74.631-17.159-94.035 142.62-185.01 457.16-162.11 661.42-4.658z" fill="#7326F1"/>
</g>
<g filter="url(#h)">
<path d="m1057.5 214.79c204.26 157.45 325.56 388.46 182.94 573.47-14.96 19.404-109.7 48.774-127.47 64.621 91.82-180.86 103.63-482.62-84.41-627.57-235.6-181.62-463.7-46.593-615.32 88.175 18.453 14.225-32.117-74.631-17.159-94.035 142.62-185.01 457.16-162.11 661.42-4.658z" fill="#7326F1"/>
</g>
<g filter="url(#g)">
<path d="m1057.5 214.79c204.26 157.45 325.56 388.46 182.94 573.47-14.96 19.404-109.7 48.774-127.47 64.621 91.82-180.86 103.63-482.62-84.41-627.57-235.6-181.62-463.7-46.593-615.32 88.175 18.453 14.225-32.117-74.631-17.159-94.035 142.62-185.01 457.16-162.11 661.42-4.658z" fill="#7326F1"/>
</g>
</g>
<mask id="c" x="-147" y="-188" width="1475" height="1349" style="mask-type:alpha" maskUnits="userSpaceOnUse">
<rect transform="rotate(120.13 1327.9 416.82)" x="1327.9" y="416.82" width="860" height="1205" fill="url(#a)"/>
</mask>
<g mask="url(#c)">
<path d="m446.46 770.15c-223.06-129.45-308.85-398.22-191.6-600.26 12.297-21.191 26.383-40.881 41.934-58.911-67.428 191.3 22.233 418.73 221.94 534.62 199.71 115.9 441.57 80.859 574.29-72.545-7.94 22.448-18.04 44.446-30.34 65.637-117.25 202.04-393.17 260.9-616.23 131.46z" fill="#BE42C9"/>
<g filter="url(#f)">
<path d="m454.49 756.31c-223.06-129.45-316.88-384.38-199.63-586.42 12.297-21.191 26.383-40.881 41.934-58.911-67.428 191.3 14.202 432.56 213.91 548.46 199.71 115.9 449.6 67.02 582.32-86.384-7.94 22.448-18.04 44.446-30.34 65.637-117.25 202.04-385.14 247.06-608.2 117.62z" fill="#BE42C9"/>
</g>
<g filter="url(#e)">
<path d="m458.51 749.39c-223.06-129.45-319.78-395.31-202.53-597.35 12.297-21.191 26.383-40.881 41.933-58.911-67.427 191.3 9.075 457.34 208.78 573.23 199.71 115.9 463.29 41.436 596.02-111.97-7.94 22.448-18.05 44.446-30.35 65.637-117.25 202.04-390.79 258.81-613.85 129.36z" fill="#BE42C9"/>
</g>
<g filter="url(#s)">
<path d="m458.51 749.39c-223.06-129.45-319.78-395.31-202.53-597.35 12.297-21.191 26.383-40.881 41.933-58.911-67.427 191.3 9.075 457.34 208.78 573.23 199.71 115.9 463.29 41.436 596.02-111.97-7.94 22.448-18.05 44.446-30.35 65.637-117.25 202.04-390.79 258.81-613.85 129.36z" fill="#BE42C9"/>
</g>
<g filter="url(#r)">
<path d="m458.51 749.39c-223.06-129.45-319.78-395.31-202.53-597.35 12.297-21.191 26.383-40.881 41.933-58.911-67.427 191.3 9.075 457.34 208.78 573.23 199.71 115.9 463.29 41.436 596.02-111.97-7.94 22.448-18.05 44.446-30.35 65.637-117.25 202.04-390.79 258.81-613.85 129.36z" fill="#BE42C9"/>
</g>
<g filter="url(#q)">
<path d="m466.32 703.05c-223.06-129.45-327.6-348.97-210.34-551.02 12.297-21.191 26.383-40.881 41.933-58.911-67.427 191.3-9.615 476.55 195.73 595.72 257.29 149.31 476.34 18.949 609.07-134.46-7.94 22.448-18.05 44.446-30.35 65.637-117.25 202.04-382.98 212.47-606.04 83.024z" fill="#BE42C9"/>
</g>
<g filter="url(#p)">
<path d="m466.32 703.05c-223.06-129.45-373.47-342.64-256.22-544.69 12.297-21.19 102.39-62.674 117.94-80.705-67.427 191.3-39.748 492.02 165.6 611.18 257.29 149.31 465.82-14.327 598.55-167.73-20.15-11.695 41.58 69.801 29.28 90.991-117.25 202.04-432.09 220.39-655.15 90.945z" fill="#BE42C9"/>
</g>
<g filter="url(#o)">
<path d="m466.32 703.05c-223.06-129.45-373.47-342.64-256.22-544.69 12.297-21.19 102.39-62.674 117.94-80.705-67.427 191.3-39.748 492.02 165.6 611.18 257.29 149.31 465.82-14.327 598.55-167.73-20.15-11.695 41.58 69.801 29.28 90.991-117.25 202.04-432.09 220.39-655.15 90.945z" fill="#BE42C9"/>
</g>
<g filter="url(#n)">
<path d="m466.32 703.05c-223.06-129.45-373.47-342.64-256.22-544.69 12.297-21.19 102.39-62.674 117.94-80.705-67.427 191.3-39.748 492.02 165.6 611.18 257.29 149.31 465.82-14.327 598.55-167.73-20.15-11.695 41.58 69.801 29.28 90.991-117.25 202.04-432.09 220.39-655.15 90.945z" fill="#BE42C9"/>
</g>
</g>
</g>
<defs>
<filter id="t" x="407.22" y="41.119" width="880.51" height="794.8" color-interpolation-filters="sRGB" filterUnits="userSpaceOnUse">
<feFlood flood-opacity="0" result="BackgroundImageFix"/>
<feBlend in="SourceGraphic" in2="BackgroundImageFix" result="shape"/>
<feGaussianBlur result="effect1_foregroundBlur_100:2" stdDeviation="6"/>
</filter>
<filter id="m" x="371.2" y="28.22" width="936.65" height="849.26" color-interpolation-filters="sRGB" filterUnits="userSpaceOnUse">
<feFlood flood-opacity="0" result="BackgroundImageFix"/>
<feBlend in="SourceGraphic" in2="BackgroundImageFix" result="shape"/>
<feGaussianBlur result="effect1_foregroundBlur_100:2" stdDeviation="18"/>
</filter>
<filter id="l" x="355.2" y="12.22" width="968.65" height="881.26" color-interpolation-filters="sRGB" filterUnits="userSpaceOnUse">
<feFlood flood-opacity="0" result="BackgroundImageFix"/>
<feBlend in="SourceGraphic" in2="BackgroundImageFix" result="shape"/>
<feGaussianBlur result="effect1_foregroundBlur_100:2" stdDeviation="26"/>
</filter>
<filter id="k" x="355.2" y="12.22" width="968.65" height="881.26" color-interpolation-filters="sRGB" filterUnits="userSpaceOnUse">
<feFlood flood-opacity="0" result="BackgroundImageFix"/>
<feBlend in="SourceGraphic" in2="BackgroundImageFix" result="shape"/>
<feGaussianBlur result="effect1_foregroundBlur_100:2" stdDeviation="26"/>
</filter>
<filter id="j" x="283.2" y="-36.15" width="1108.6" height="1001.6" color-interpolation-filters="sRGB" filterUnits="userSpaceOnUse">
<feFlood flood-opacity="0" result="BackgroundImageFix"/>
<feBlend in="SourceGraphic" in2="BackgroundImageFix" result="shape"/>
<feGaussianBlur result="effect1_foregroundBlur_100:2" stdDeviation="62"/>
</filter>
<filter id="i" x="317.32" y="12.602" width="1061.2" height="916.28" color-interpolation-filters="sRGB" filterUnits="userSpaceOnUse">
<feFlood flood-opacity="0" result="BackgroundImageFix"/>
<feBlend in="SourceGraphic" in2="BackgroundImageFix" result="shape"/>
<feGaussianBlur result="effect1_foregroundBlur_100:2" stdDeviation="38"/>
</filter>
<filter id="h" x="229.32" y="-75.398" width="1237.2" height="1092.3" color-interpolation-filters="sRGB" filterUnits="userSpaceOnUse">
<feFlood flood-opacity="0" result="BackgroundImageFix"/>
<feBlend in="SourceGraphic" in2="BackgroundImageFix" result="shape"/>
<feGaussianBlur result="effect1_foregroundBlur_100:2" stdDeviation="82"/>
</filter>
<filter id="g" x="149.32" y="-155.4" width="1397.2" height="1252.3" color-interpolation-filters="sRGB" filterUnits="userSpaceOnUse">
<feFlood flood-opacity="0" result="BackgroundImageFix"/>
<feBlend in="SourceGraphic" in2="BackgroundImageFix" result="shape"/>
<feGaussianBlur result="effect1_foregroundBlur_100:2" stdDeviation="122"/>
</filter>
<filter id="f" x="192.1" y="98.98" width="912.93" height="742.28" color-interpolation-filters="sRGB" filterUnits="userSpaceOnUse">
<feFlood flood-opacity="0" result="BackgroundImageFix"/>
<feBlend in="SourceGraphic" in2="BackgroundImageFix" result="shape"/>
<feGaussianBlur result="effect1_foregroundBlur_100:2" stdDeviation="6"/>
</filter>
<filter id="e" x="169.81" y="57.126" width="968.89" height="797.58" color-interpolation-filters="sRGB" filterUnits="userSpaceOnUse">
<feFlood flood-opacity="0" result="BackgroundImageFix"/>
<feBlend in="SourceGraphic" in2="BackgroundImageFix" result="shape"/>
<feGaussianBlur result="effect1_foregroundBlur_100:2" stdDeviation="18"/>
</filter>
<filter id="s" x="153.81" y="41.126" width="1000.9" height="829.58" color-interpolation-filters="sRGB" filterUnits="userSpaceOnUse">
<feFlood flood-opacity="0" result="BackgroundImageFix"/>
<feBlend in="SourceGraphic" in2="BackgroundImageFix" result="shape"/>
<feGaussianBlur result="effect1_foregroundBlur_100:2" stdDeviation="26"/>
</filter>
<filter id="r" x="153.81" y="41.126" width="1000.9" height="829.58" color-interpolation-filters="sRGB" filterUnits="userSpaceOnUse">
<feFlood flood-opacity="0" result="BackgroundImageFix"/>
<feBlend in="SourceGraphic" in2="BackgroundImageFix" result="shape"/>
<feGaussianBlur result="effect1_foregroundBlur_100:2" stdDeviation="26"/>
</filter>
<filter id="q" x="83.376" y="-30.874" width="1143.3" height="943.21" color-interpolation-filters="sRGB" filterUnits="userSpaceOnUse">
<feFlood flood-opacity="0" result="BackgroundImageFix"/>
<feBlend in="SourceGraphic" in2="BackgroundImageFix" result="shape"/>
<feGaussianBlur result="effect1_foregroundBlur_100:2" stdDeviation="62"/>
</filter>
<filter id="p" x="93.236" y="1.6614" width="1105.9" height="859.63" color-interpolation-filters="sRGB" filterUnits="userSpaceOnUse">
<feFlood flood-opacity="0" result="BackgroundImageFix"/>
<feBlend in="SourceGraphic" in2="BackgroundImageFix" result="shape"/>
<feGaussianBlur result="effect1_foregroundBlur_100:2" stdDeviation="38"/>
</filter>
<filter id="o" x="5.236" y="-86.339" width="1281.9" height="1035.6" color-interpolation-filters="sRGB" filterUnits="userSpaceOnUse">
<feFlood flood-opacity="0" result="BackgroundImageFix"/>
<feBlend in="SourceGraphic" in2="BackgroundImageFix" result="shape"/>
<feGaussianBlur result="effect1_foregroundBlur_100:2" stdDeviation="82"/>
</filter>
<filter id="n" x="-74.764" y="-166.34" width="1441.9" height="1195.6" color-interpolation-filters="sRGB" filterUnits="userSpaceOnUse">
<feFlood flood-opacity="0" result="BackgroundImageFix"/>
<feBlend in="SourceGraphic" in2="BackgroundImageFix" result="shape"/>
<feGaussianBlur result="effect1_foregroundBlur_100:2" stdDeviation="122"/>
</filter>
<linearGradient id="b" x1="596" x2="596" y1="386.12" y2="1591.1" gradientUnits="userSpaceOnUse">
<stop stop-color="#C4C4C4" stop-opacity="0" offset="0"/>
<stop stop-color="#C4C4C4" offset=".38021"/>
<stop stop-color="#C4C4C4" offset=".57812"/>
<stop stop-color="#C4C4C4" stop-opacity="0" offset="1"/>
</linearGradient>
<linearGradient id="a" x1="1757.9" x2="1757.9" y1="416.82" y2="1621.8" gradientUnits="userSpaceOnUse">
<stop stop-color="#C4C4C4" stop-opacity="0" offset="0"/>
<stop stop-color="#C4C4C4" offset=".38021"/>
<stop stop-color="#C4C4C4" offset=".57812"/>
<stop stop-color="#C4C4C4" stop-opacity="0" offset="1"/>
</linearGradient>
<clipPath id="u">
<rect width="1440" height="900" fill="#fff"/>
</clipPath>
</defs>
</svg>
